<svg xmlns="http://www.w3.org/2000/svg" viewBox="0 0 800 600" width="800" height="600">
    <defs>
      <linearGradient id="bg" x1="0" y1="0" x2="1" y2="1">
        <stop offset="0%" stop-color="#131317"/>
        <stop offset="100%" stop-color="#08080a"/>
      </linearGradient>
      <radialGradient id="glow" cx="50%" cy="20%" r="70%">
        <stop offset="0%" stop-color="#f5a94e" stop-opacity="0.35"/>
        <stop offset="100%" stop-color="#f5a94e" stop-opacity="0"/>
      </radialGradient>
    </defs>
    <rect width="800" height="600" fill="url(#bg)"/>
    <rect width="800" height="600" fill="url(#glow)"/>
    <g transform="translate(0 204.00000000000003)"><rect x="0.0" y="54.9" width="9.2" height="82.2" rx="4.2" fill="#f5a94e" opacity="0.85"/><rect x="16.7" y="77.8" width="9.2" height="36.4" rx="4.2" fill="#2a2a30" opacity="0.85"/><rect x="33.3" y="29.1" width="9.2" height="133.8" rx="4.2" fill="#f5a94e" opacity="0.85"/><rect x="50.0" y="38.5" width="9.2" height="115.0" rx="4.2" fill="#2a2a30" opacity="0.85"/><rect x="66.7" y="38.1" width="9.2" height="115.8" rx="4.2" fill="#f5a94e" opacity="0.85"/><rect x="83.3" y="58.8" width="9.2" height="74.4" rx="4.2" fill="#2a2a30" opacity="0.85"/><rect x="100.0" y="46.2" width="9.2" height="99.6" rx="4.2" fill="#f5a94e" opacity="0.85"/><rect x="116.7" y="60.5" width="9.2" height="70.9" rx="4.2" fill="#2a2a30" opacity="0.85"/><rect x="133.3" y="68.7" width="9.2" height="54.7" rx="4.2" fill="#f5a94e" opacity="0.85"/><rect x="150.0" y="48.1" width="9.2" height="95.7" rx="4.2" fill="#2a2a30" opacity="0.85"/><rect x="166.7" y="43.2" width="9.2" height="105.6" rx="4.2" fill="#f5a94e" opacity="0.85"/><rect x="183.3" y="28.7" width="9.2" height="134.6" rx="4.2" fill="#2a2a30" opacity="0.85"/><rect x="200.0" y="14.2" width="9.2" height="163.6" rx="4.2" fill="#f5a94e" opacity="0.85"/><rect x="216.7" y="28.0" width="9.2" height="136.0" rx="4.2" fill="#2a2a30" opacity="0.85"/><rect x="233.3" y="52.9" width="9.2" height="86.3" rx="4.2" fill="#f5a94e" opacity="0.85"/><rect x="250.0" y="58.5" width="9.2" height="75.1" rx="4.2" fill="#2a2a30" opacity="0.85"/><rect x="266.7" y="56.9" width="9.2" height="78.1" rx="4.2" fill="#f5a94e" opacity="0.85"/><rect x="283.3" y="39.2" width="9.2" height="113.5" rx="4.2" fill="#2a2a30" opacity="0.85"/><rect x="300.0" y="78.9" width="9.2" height="34.3" rx="4.2" fill="#f5a94e" opacity="0.85"/><rect x="316.7" y="28.1" width="9.2" height="135.9" rx="4.2" fill="#2a2a30" opacity="0.85"/><rect x="333.3" y="29.7" width="9.2" height="132.5" rx="4.2" fill="#f5a94e" opacity="0.85"/><rect x="350.0" y="45.4" width="9.2" height="101.1" rx="4.2" fill="#2a2a30" opacity="0.85"/><rect x="366.7" y="55.4" width="9.2" height="81.3" rx="4.2" fill="#f5a94e" opacity="0.85"/><rect x="383.3" y="66.4" width="9.2" height="59.1" rx="4.2" fill="#2a2a30" opacity="0.85"/><rect x="400.0" y="72.2" width="9.2" height="47.6" rx="4.2" fill="#f5a94e" opacity="0.85"/><rect x="416.7" y="36.8" width="9.2" height="118.3" rx="4.2" fill="#2a2a30" opacity="0.85"/><rect x="433.3" y="47.3" width="9.2" height="97.4" rx="4.2" fill="#f5a94e" opacity="0.85"/><rect x="450.0" y="57.1" width="9.2" height="77.8" rx="4.2" fill="#2a2a30" opacity="0.85"/><rect x="466.7" y="14.5" width="9.2" height="163.1" rx="4.2" fill="#f5a94e" opacity="0.85"/><rect x="483.3" y="14.3" width="9.2" height="163.4" rx="4.2" fill="#2a2a30" opacity="0.85"/><rect x="500.0" y="42.2" width="9.2" height="107.7" rx="4.2" fill="#f5a94e" opacity="0.85"/><rect x="516.7" y="30.3" width="9.2" height="131.5" rx="4.2" fill="#2a2a30" opacity="0.85"/><rect x="533.3" y="81.5" width="9.2" height="29.0" rx="4.2" fill="#f5a94e" opacity="0.85"/><rect x="550.0" y="69.4" width="9.2" height="53.2" rx="4.2" fill="#2a2a30" opacity="0.85"/><rect x="566.7" y="54.2" width="9.2" height="83.5" rx="4.2" fill="#f5a94e" opacity="0.85"/><rect x="583.3" y="74.9" width="9.2" height="42.3" rx="4.2" fill="#2a2a30" opacity="0.85"/><rect x="600.0" y="36.8" width="9.2" height="118.4" rx="4.2" fill="#f5a94e" opacity="0.85"/><rect x="616.7" y="56.4" width="9.2" height="79.3" rx="4.2" fill="#2a2a30" opacity="0.85"/><rect x="633.3" y="36.4" width="9.2" height="119.2" rx="4.2" fill="#f5a94e" opacity="0.85"/><rect x="650.0" y="58.4" width="9.2" height="75.2" rx="4.2" fill="#2a2a30" opacity="0.85"/><rect x="666.7" y="78.7" width="9.2" height="34.7" rx="4.2" fill="#f5a94e" opacity="0.85"/><rect x="683.3" y="80.1" width="9.2" height="31.9" rx="4.2" fill="#2a2a30" opacity="0.85"/><rect x="700.0" y="32.1" width="9.2" height="127.7" rx="4.2" fill="#f5a94e" opacity="0.85"/><rect x="716.7" y="19.1" width="9.2" height="153.7" rx="4.2" fill="#2a2a30" opacity="0.85"/><rect x="733.3" y="31.9" width="9.2" height="128.2" rx="4.2" fill="#f5a94e" opacity="0.85"/><rect x="750.0" y="72.1" width="9.2" height="47.9" rx="4.2" fill="#2a2a30" opacity="0.85"/><rect x="766.7" y="63.8" width="9.2" height="64.5" rx="4.2" fill="#f5a94e" opacity="0.85"/><rect x="783.3" y="77.9" width="9.2" height="36.1" rx="4.2" fill="#2a2a30" opacity="0.85"/></g>
    <text x="48" y="504" font-family="Arial, sans-serif" font-size="13" letter-spacing="3" fill="#f5a94e" opacity="0.9">MASTERING</text>
    <text x="48" y="544" font-family="Arial, sans-serif" font-size="30" font-weight="700" fill="#f3f3f5">Solstice</text>
    <rect x="0.5" y="0.5" width="799" height="599" fill="none" stroke="#ffffff14" stroke-width="1"/>
  </svg>